<svg width="809" height="673" viewBox="0 0 809 673" fill="none" xmlns="http://www.w3.org/2000/svg">
<path d="M806.216 118.789L403.001 0L0.130859 118.789V141.512C1.58092 224.144 10.8037 306.459 27.6786 387.385C23.6778 365.341 12.7617 278.311 62.5991 164.463L403.001 64.1948L743.69 164.577C738.603 237.349 746.492 345.004 608.237 410.107C479.073 471.007 424.149 470.611 424.149 470.611C404.153 453.911 379.029 444.484 352.92 443.881C326.812 443.277 301.274 451.536 280.521 467.294C259.767 483.051 245.033 505.366 238.749 530.564C232.466 555.759 235.007 582.333 245.954 605.9C256.901 629.469 275.602 648.626 298.971 660.215C322.339 671.803 348.985 675.131 374.511 669.649C400.038 664.167 422.925 650.203 439.396 630.06C455.87 609.916 464.946 584.794 465.127 558.835C722.43 450.271 824.677 367.613 806.216 118.789ZM415.918 594.569L394.315 605.361L381.799 625.927L357.966 622.065L335.675 631.438L318.53 614.396L295.04 608.713L291.324 584.968L275.55 566.787L286.58 545.428L284.523 521.511L306.128 510.661L318.644 490.095L342.477 494.015L364.765 484.642L381.913 501.684L405.459 507.367L409.116 531.112L424.949 549.29L413.861 570.652L415.918 594.569Z" fill="#5C5C5C" fill-opacity="0.08"/>
</svg>
