<svg width="651" height="777" viewBox="0 0 651 777" fill="none" xmlns="http://www.w3.org/2000/svg">
<path d="M650.809 361.269C627.5 435.977 594.045 507.172 551.363 572.883C489.981 664.915 412.71 731.949 321.608 771.717L309.149 777.114C309.149 777.114 182.155 738.768 66.9344 572.883C-48.2858 406.999 -1.24906 263.214 119.858 188.624C244.508 111.876 245.595 113.862 245.595 113.862C245.734 93.5953 251.302 73.7305 261.725 56.3101C272.148 38.8899 287.048 24.5426 304.897 14.7434C322.747 4.94392 342.9 0.0461041 363.284 0.553083C383.667 1.05984 403.549 6.95336 420.883 17.6275L328.009 73.869L324.636 131.132L370.701 165.674L473.978 131.587C470.897 151.621 462.511 170.479 449.68 186.227C436.848 201.976 420.034 214.049 400.959 221.208C381.886 228.365 361.24 230.352 341.138 226.962C321.037 223.571 302.204 214.929 286.573 201.918C286.573 201.918 274.799 201.918 183.697 250.15C7.43827 344.168 79.6796 599.585 308.976 709.227C312.864 708.431 316.808 707.522 320.407 706.5C453.973 673.379 561.878 568.794 650.809 361.269Z" fill="#5C5C5C" fill-opacity="0.08"/>
</svg>
